<?xml version="1.0" encoding="UTF-8"?>
<level>
  <owner>stolbitsa</owner>
  <repo>elochka</repo>
  <version>v1.0.0</version>
  <next number="1" owner="stolbitsa" repo="master-and-servant-octaves"/>
  <readme>
    <en>b1408dbc53f43a2741bd2481cfcbccaedca74601407faeacef5909366973a3f6</en>
    <ru>c34ca2372c90fbfff78518bed2b34db075fba4293245e6776a44e7861eab95a8</ru>
  </readme>
  <license>b1b99f5538d1fd3702219bff50c665196dfa42f6ee755c37fe41a6178d6bc6e5</license>
  <exercise number="1">
    <scale>major</scale>
    <bpm>72</bpm>
    <lowestNote>85</lowestNote>
    <tonalities>6</tonalities>
    <notes>
      <note number="1" values="85" ticks="46" durationTicks="48" ppq="96" velocity="0.843"/>
      <note number="2" values="3" ticks="97" durationTicks="48" ppq="96" velocity="0.913"/>
      <note number="3" values="3" ticks="147" durationTicks="45" ppq="192" velocity="0.669"/>
      <note number="4" values="2" ticks="194" durationTicks="44" ppq="192" velocity="0.676"/>
      <note number="5" values="3" ticks="242" durationTicks="43" ppq="192" velocity="0.676"/>
      <note number="6" values="1" ticks="288" durationTicks="46" ppq="192" velocity="0.676"/>
      <note number="7" values="85" ticks="337" durationTicks="47" ppq="192" velocity="0.676"/>
      <note number="8" values="85" ticks="384" durationTicks="49" ppq="192" velocity="0.676"/>
    </notes>
  </exercise>
  <exercise number="2">
    <scale>major</scale>
    <bpm>72</bpm>
    <lowestNote>85</lowestNote>
    <tonalities>6</tonalities>
    <notes>
      <note number="1" values="85" ticks="46" durationTicks="48" ppq="96" velocity="0.843"/>
      <note number="2" values="3" ticks="97" durationTicks="48" ppq="96" velocity="0.913"/>
      <note number="3" values="3" ticks="147" durationTicks="45" ppq="192" velocity="0.669"/>
      <note number="4" values="2" ticks="194" durationTicks="44" ppq="192" velocity="0.676"/>
      <note number="5" values="3" ticks="242" durationTicks="43" ppq="192" velocity="0.676"/>
      <note number="6" values="1" ticks="288" durationTicks="46" ppq="192" velocity="0.676"/>
      <note number="7" values="85" ticks="337" durationTicks="47" ppq="192" velocity="0.676"/>
      <note number="8" values="85" ticks="384" durationTicks="49" ppq="192" velocity="0.676"/>
    </notes>
  </exercise>
  <exercise number="3">
    <scale>major</scale>
    <bpm>72</bpm>
    <lowestNote>85</lowestNote>
    <tonalities>6</tonalities>
    <notes>
      <note number="1" values="85" ticks="46" durationTicks="48" ppq="96" velocity="0.843"/>
      <note number="2" values="3" ticks="97" durationTicks="48" ppq="96" velocity="0.913"/>
      <note number="3" values="3" ticks="147" durationTicks="45" ppq="192" velocity="0.669"/>
      <note number="4" values="2" ticks="194" durationTicks="44" ppq="192" velocity="0.676"/>
      <note number="5" values="3" ticks="242" durationTicks="43" ppq="192" velocity="0.676"/>
      <note number="6" values="1" ticks="288" durationTicks="46" ppq="192" velocity="0.676"/>
      <note number="7" values="85" ticks="337" durationTicks="47" ppq="192" velocity="0.676"/>
      <note number="8" values="85" ticks="384" durationTicks="49" ppq="192" velocity="0.676"/>
    </notes>
  </exercise>
  <exercise number="4">
    <scale>major</scale>
    <bpm>72</bpm>
    <lowestNote>85</lowestNote>
    <tonalities>6</tonalities>
    <notes>
      <note number="1" values="85" ticks="46" durationTicks="48" ppq="96" velocity="0.843"/>
      <note number="2" values="3" ticks="97" durationTicks="48" ppq="96" velocity="0.913"/>
      <note number="3" values="3" ticks="147" durationTicks="45" ppq="192" velocity="0.669"/>
      <note number="4" values="2" ticks="194" durationTicks="44" ppq="192" velocity="0.676"/>
      <note number="5" values="3" ticks="242" durationTicks="43" ppq="192" velocity="0.676"/>
      <note number="6" values="1" ticks="288" durationTicks="46" ppq="192" velocity="0.676"/>
      <note number="7" values="85" ticks="337" durationTicks="47" ppq="192" velocity="0.676"/>
      <note number="8" values="85" ticks="384" durationTicks="49" ppq="192" velocity="0.676"/>
    </notes>
  </exercise>
  <exercise number="5">
    <scale>major</scale>
    <bpm>72</bpm>
    <lowestNote>85</lowestNote>
    <tonalities>6</tonalities>
    <notes>
      <note number="1" values="85" ticks="46" durationTicks="48" ppq="96" velocity="0.843"/>
      <note number="2" values="3" ticks="97" durationTicks="48" ppq="96" velocity="0.913"/>
      <note number="3" values="3" ticks="147" durationTicks="45" ppq="192" velocity="0.669"/>
      <note number="4" values="2" ticks="194" durationTicks="44" ppq="192" velocity="0.676"/>
      <note number="5" values="3" ticks="242" durationTicks="43" ppq="192" velocity="0.676"/>
      <note number="6" values="1" ticks="288" durationTicks="46" ppq="192" velocity="0.676"/>
      <note number="7" values="85" ticks="337" durationTicks="47" ppq="192" velocity="0.676"/>
      <note number="8" values="85" ticks="384" durationTicks="49" ppq="192" velocity="0.676"/>
    </notes>
  </exercise>
</level>
